<svg xmlns="http://www.w3.org/2000/svg" width="34" height="26" viewBox="0 0 34 26">
  <defs>
    <style>
      .cls-1 {
        fill: #d83a3a;
        fill-rule: evenodd;
      }
    </style>
  </defs>
  <path id="Forma_1" data-name="Forma 1" class="cls-1" d="M43,526.75a4.88,4.88,0,1,0,5.1,4.875A4.991,4.991,0,0,0,43,526.75Zm13.6-4.875H52.52a1.51,1.51,0,0,1-1.343-.925l-1.055-3.026A1.512,1.512,0,0,0,48.78,517H37.22a1.511,1.511,0,0,0-1.343.925l-1.055,3.025a1.512,1.512,0,0,1-1.343.925H29.4a3.338,3.338,0,0,0-3.4,3.25V539.75A3.337,3.337,0,0,0,29.4,543H56.6a3.337,3.337,0,0,0,3.4-3.25V525.125A3.338,3.338,0,0,0,56.6,521.875ZM43,539.75a8.133,8.133,0,1,1,8.5-8.125A8.319,8.319,0,0,1,43,539.75ZM55.41,527.4a1.139,1.139,0,1,1,1.19-1.138A1.165,1.165,0,0,1,55.41,527.4Z" transform="translate(-26 -517)"/>
</svg>
