<svg xmlns="http://www.w3.org/2000/svg" width="39" height="18" viewBox="0 0 39 18">
  <defs>
    <style>
      .cls-1 {
        fill: #d83a3a;
        fill-rule: evenodd;
      }
    </style>
  </defs>
  <path id="Forma_1" data-name="Forma 1" class="cls-1" d="M50.918,582.548A20.571,20.571,0,0,0,48.28,582c-0.624.9-3.259,1.547-4.775,1.547H43.5c-1.516,0-4.151-.645-4.775-1.547a20.575,20.575,0,0,0-2.639.545A9.152,9.152,0,0,1,40.9,595.594h5.2A9.151,9.151,0,0,1,50.918,582.548Zm-18.447.39a8.531,8.531,0,1,0,8.469,8.53A8.509,8.509,0,0,0,32.471,582.938Zm0,13.918a5.388,5.388,0,1,1,5.349-5.388A5.374,5.374,0,0,1,32.471,596.856Zm-3.454-8.1a3.973,3.973,0,0,0,.135,4.993,4.781,4.781,0,0,1,.78-4.282,4.708,4.708,0,0,1,3.915-1.846A3.905,3.905,0,0,0,29.017,588.752Zm25.513-5.814A8.531,8.531,0,1,0,63,591.468,8.51,8.51,0,0,0,54.53,582.938Zm0,13.918a5.388,5.388,0,1,1,5.349-5.388A5.374,5.374,0,0,1,54.53,596.856Zm-1.376-9.239a4.708,4.708,0,0,1,3.916,1.846,4.781,4.781,0,0,1,.78,4.282,3.974,3.974,0,0,0,.135-4.993A3.906,3.906,0,0,0,53.154,587.617Z" transform="translate(-24 -582)"/>
</svg>
