<svg xmlns="http://www.w3.org/2000/svg" width="52" height="19" viewBox="0 0 52 19">
  <defs>
    <style>
      .cls-1 {
        fill: #d83a3a;
        fill-rule: evenodd;
      }
    </style>
  </defs>
  <path id="Forma_1" data-name="Forma 1" class="cls-1" d="M454.48,777.318h-0.972c-0.015-.068-0.03-0.14-0.047-0.195-1.054-3.428-4.218-4.975-6.945-5.426a30.367,30.367,0,0,0-6.872-.5V771H418.578v0.188a31.562,31.562,0,0,0-7.1.5c-2.724.453-5.889,2-6.942,5.426-0.017.056-.032,0.129-0.048,0.2h-0.971a0.514,0.514,0,0,0-.52.513v0.9a0.514,0.514,0,0,0,.52.513h0.819a14.2,14.2,0,0,0,2.409,7.89A9.911,9.911,0,0,0,413.63,790c4.467,0,8.99-2.7,10.5-5.122a27.782,27.782,0,0,0,2.541-4.631l0.057-.169a10.766,10.766,0,0,0,.444-1.162,7.3,7.3,0,0,0,.1-1.728h3.457a7.36,7.36,0,0,0,.1,1.728,10.739,10.739,0,0,0,.443,1.162l0.057,0.169a27.681,27.681,0,0,0,2.539,4.631c1.51,2.418,6.031,5.12,10.5,5.122a9.914,9.914,0,0,0,6.886-2.872,14.191,14.191,0,0,0,2.406-7.89h0.823a0.516,0.516,0,0,0,.52-0.513v-0.9A0.516,0.516,0,0,0,454.48,777.318Zm-23.512-1.987h-3.939a4.7,4.7,0,0,0-.458-1.323l-2.029-1.486c-0.091-.034-0.737-0.5-1.283-0.845h11.478c-0.543.352-1.189,0.811-1.282,0.845l-2.028,1.486A4.633,4.633,0,0,0,430.968,775.331Z" transform="translate(-403 -771)"/>
</svg>
