<svg xmlns="http://www.w3.org/2000/svg" width="32" height="32" viewBox="0 0 32 32">
  <defs>
    <style>
      .cls-1 {
        fill: #d83a3a;
        fill-rule: evenodd;
      }
    </style>
  </defs>
  <path id="Forma_1" data-name="Forma 1" class="cls-1" d="M58.939,410.637a7.279,7.279,0,0,0-3.917-1.439c-0.209-.034-0.414-0.067-0.617-0.1-0.149-.038-0.341-0.079-0.534-0.123-1.768-.392-3.017-0.775-3.022-2.157a7.553,7.553,0,0,1,.642-2.646,8.121,8.121,0,0,0,.712-3.316,6.479,6.479,0,0,0-2.617-5.118A3.659,3.659,0,0,0,47.426,395a2.3,2.3,0,0,0-2.313,1.606,5.07,5.07,0,0,0-.158,2.065c0.008,0.174.022,0.353,0.027,0.539a6.015,6.015,0,0,1-.379,2.542,13.988,13.988,0,0,1-2.626,4.006l-0.506.607a19.614,19.614,0,0,1-2.271,2.443,3.254,3.254,0,0,1-1.4.535c-0.159.01-9.789,0.1-9.789,0.1v13.512s7.553-.009,7.978-0.033c0.373-.021.732-0.041,1.061-0.041H37.2c0.311,0.063.626,0.094,0.953,0.13,0.291,0.029.593,0.06,0.909,0.118a2.635,2.635,0,0,1,1.079.718,5.956,5.956,0,0,0,.608.5c0.2,0.137.4,0.274,0.6,0.414a11.315,11.315,0,0,0,1.982,1.183,10.957,10.957,0,0,0,2.84.606c0.465,0.058.927,0.112,1.369,0.2l0.79,0.086a21.7,21.7,0,0,0,2.3.166,7.53,7.53,0,0,0,1.413-.121,3.147,3.147,0,0,0,2.505-2.96,3.79,3.79,0,0,0,1.913-1.71,3.129,3.129,0,0,0,.383-2.143,3.85,3.85,0,0,0,1.829-4.136,2.994,2.994,0,0,0,1.258-2.02A3.7,3.7,0,0,0,58.939,410.637Zm-1,2.706a1.09,1.09,0,0,1-.912,1.046,1,1,0,0,0-.711.575,1.238,1.238,0,0,0,.141,1.12,1.553,1.553,0,0,1,.135,1.335,1.927,1.927,0,0,1-1.34,1.229,0.921,0.921,0,0,0-.708.532,0.861,0.861,0,0,0,.1.966,1.476,1.476,0,0,1-.113,1.378,1.037,1.037,0,0,1-.82.631,0.555,0.555,0,0,1-.127-0.015l-0.047-.008H53.49a1.336,1.336,0,0,0-1.077.5,0.762,0.762,0,0,0-.059.763,1.249,1.249,0,0,1-.051,1.084,0.8,0.8,0,0,1-.622.366,5.913,5.913,0,0,1-1.481.127c-1.436-.124-2.96-0.256-4.432-0.509l-0.7-.151c-0.365-.079-0.725-0.154-1.045-0.231A11.645,11.645,0,0,1,42.334,423c-0.189-.136-0.374-0.27-0.556-0.4-0.133-.1-0.278-0.232-0.424-0.364a3.376,3.376,0,0,0-1.319-.852,2.7,2.7,0,0,0-1.442-.29,2.248,2.248,0,0,1-2.354-1.742,12.847,12.847,0,0,1-.322-3.622l0-.255a7.025,7.025,0,0,1,.607-3.407,2.066,2.066,0,0,1,1.527-.687,5.054,5.054,0,0,0,2.321-.928,0.491,0.491,0,0,0,.268-0.229,3.573,3.573,0,0,0,.706-0.68,32.893,32.893,0,0,0,2.879-3.388c0.184-.26.368-0.51,0.549-0.758a11.135,11.135,0,0,0,2.072-3.778,10.047,10.047,0,0,0,.178-3.1l-0.008-.164c-0.045-.669-0.055-1.389.34-1.442a0.657,0.657,0,0,1,.092-0.008,3.08,3.08,0,0,1,1.931,1.487,5.405,5.405,0,0,1,.737,2.72,8.617,8.617,0,0,1-.655,2.637,8.043,8.043,0,0,0-.685,3.349,4.176,4.176,0,0,0,3.362,3.5c0.549,0.136,1.132.227,1.695,0.314a9.562,9.562,0,0,1,3.02.806A1.664,1.664,0,0,1,57.941,413.343Z" transform="translate(-28 -395)"/>
</svg>
