<svg xmlns="http://www.w3.org/2000/svg" style="display:none"><defs><style>.cls-1{fill:#d83a3a;fill-rule:evenodd}</style><style>.cls-1{fill:#d83a3a;fill-rule:evenodd}</style><style>.cls-1{fill:#d83a3a;fill-rule:evenodd}</style><style>.cls-1{fill:#d83a3a;fill-rule:evenodd}</style><style>.cls-1{fill:#fff;fill-rule:evenodd}</style></defs><symbol id="advantages--ballon" viewbox="0 0 32 32"><path id="Forma_1" data-name="Forma 1" class="cls-1" d="M58.939 410.637a7.279 7.279 0 0 0-3.917-1.439l-.617-.1c-.149-.038-.341-.079-.534-.123-1.768-.392-3.017-.775-3.022-2.157a7.553 7.553 0 0 1 .642-2.646 8.121 8.121 0 0 0 .712-3.316 6.479 6.479 0 0 0-2.617-5.118 3.659 3.659 0 0 0-2.16-.738 2.3 2.3 0 0 0-2.313 1.606 5.07 5.07 0 0 0-.158 2.065c.008.174.022.353.027.539a6.015 6.015 0 0 1-.379 2.542 13.988 13.988 0 0 1-2.626 4.006l-.506.607a19.614 19.614 0 0 1-2.271 2.443 3.254 3.254 0 0 1-1.4.535c-.159.01-9.789.1-9.789.1v13.512s7.553-.009 7.978-.033a19.47 19.47 0 0 1 1.061-.041h.15c.311.063.626.094.953.13.291.029.593.06.909.118a2.635 2.635 0 0 1 1.079.718 5.956 5.956 0 0 0 .608.5c.2.137.4.274.6.414a11.315 11.315 0 0 0 1.982 1.183 10.957 10.957 0 0 0 2.84.606c.465.058.927.112 1.369.2l.79.086a21.7 21.7 0 0 0 2.3.166 7.53 7.53 0 0 0 1.413-.121 3.147 3.147 0 0 0 2.505-2.96 3.79 3.79 0 0 0 1.913-1.71 3.129 3.129 0 0 0 .383-2.143 3.85 3.85 0 0 0 1.829-4.136 2.994 2.994 0 0 0 1.258-2.02 3.7 3.7 0 0 0-.992-3.275zm-1 2.706a1.09 1.09 0 0 1-.912 1.046 1 1 0 0 0-.711.575 1.238 1.238 0 0 0 .141 1.12 1.553 1.553 0 0 1 .135 1.335 1.927 1.927 0 0 1-1.34 1.229.921.921 0 0 0-.708.532.861.861 0 0 0 .1.966 1.476 1.476 0 0 1-.113 1.378 1.037 1.037 0 0 1-.82.631.555.555 0 0 1-.127-.015l-.047-.008h-.047a1.336 1.336 0 0 0-1.077.5.762.762 0 0 0-.059.763 1.249 1.249 0 0 1-.051 1.084.8.8 0 0 1-.622.366 5.913 5.913 0 0 1-1.481.127c-1.436-.124-2.96-.256-4.432-.509l-.7-.151c-.365-.079-.725-.154-1.045-.231A11.645 11.645 0 0 1 42.334 423l-.556-.4c-.133-.1-.278-.232-.424-.364a3.376 3.376 0 0 0-1.319-.852 2.7 2.7 0 0 0-1.442-.29 2.248 2.248 0 0 1-2.354-1.742 12.847 12.847 0 0 1-.322-3.622v-.255a7.025 7.025 0 0 1 .607-3.407 2.066 2.066 0 0 1 1.527-.687 5.054 5.054 0 0 0 2.321-.928.491.491 0 0 0 .268-.229 3.573 3.573 0 0 0 .706-.68 32.893 32.893 0 0 0 2.879-3.388c.184-.26.368-.51.549-.758a11.135 11.135 0 0 0 2.072-3.778 10.047 10.047 0 0 0 .178-3.1l-.008-.164c-.045-.669-.055-1.389.34-1.442a.657.657 0 0 1 .092-.008 3.08 3.08 0 0 1 1.931 1.487 5.405 5.405 0 0 1 .737 2.72 8.617 8.617 0 0 1-.655 2.637 8.043 8.043 0 0 0-.685 3.349 4.176 4.176 0 0 0 3.362 3.5c.549.136 1.132.227 1.695.314a9.562 9.562 0 0 1 3.02.806 1.664 1.664 0 0 1 1.088 1.624z" transform="translate(-28 -395)"/></symbol><symbol id="advantages--photo" viewbox="0 0 34 26"><path id="Forma_1" data-name="Forma 1" class="cls-1" d="M43 526.75a4.88 4.88 0 1 0 5.1 4.875 4.991 4.991 0 0 0-5.1-4.875zm13.6-4.875h-4.08a1.51 1.51 0 0 1-1.343-.925l-1.055-3.026A1.512 1.512 0 0 0 48.78 517H37.22a1.511 1.511 0 0 0-1.343.925l-1.055 3.025a1.512 1.512 0 0 1-1.343.925H29.4a3.338 3.338 0 0 0-3.4 3.25v14.625a3.337 3.337 0 0 0 3.4 3.25h27.2a3.337 3.337 0 0 0 3.4-3.25v-14.625a3.338 3.338 0 0 0-3.4-3.25zM43 539.75a8.133 8.133 0 1 1 8.5-8.125 8.319 8.319 0 0 1-8.5 8.125zm12.41-12.35a1.139 1.139 0 1 1 1.19-1.138 1.165 1.165 0 0 1-1.19 1.138z" transform="translate(-26 -517)"/></symbol><symbol id="advantages--pilot" viewbox="0 0 52 19"><path id="Forma_1" data-name="Forma 1" class="cls-1" d="M454.48 777.318h-.972c-.015-.068-.03-.14-.047-.195-1.054-3.428-4.218-4.975-6.945-5.426a30.367 30.367 0 0 0-6.872-.5V771h-21.066v.188a31.562 31.562 0 0 0-7.1.5c-2.724.453-5.889 2-6.942 5.426-.017.056-.032.129-.048.2h-.971a.514.514 0 0 0-.52.513v.9a.514.514 0 0 0 .52.513h.819a14.2 14.2 0 0 0 2.409 7.89 9.911 9.911 0 0 0 6.885 2.87c4.467 0 8.99-2.7 10.5-5.122a27.782 27.782 0 0 0 2.541-4.631l.057-.169a10.766 10.766 0 0 0 .444-1.162 7.3 7.3 0 0 0 .1-1.728h3.457a7.36 7.36 0 0 0 .1 1.728 10.739 10.739 0 0 0 .443 1.162l.057.169a27.681 27.681 0 0 0 2.539 4.631c1.51 2.418 6.031 5.12 10.5 5.122a9.914 9.914 0 0 0 6.886-2.872 14.191 14.191 0 0 0 2.406-7.89h.823a.516.516 0 0 0 .52-.513v-.9a.516.516 0 0 0-.523-.507zm-23.512-1.987h-3.939a4.7 4.7 0 0 0-.458-1.323l-2.029-1.486c-.091-.034-.737-.5-1.283-.845h11.478c-.543.352-1.189.811-1.282.845l-2.028 1.486a4.633 4.633 0 0 0-.459 1.323z" transform="translate(-403 -771)"/></symbol><symbol id="advantages--plans" viewbox="0 0 39 18"><path id="Forma_1" data-name="Forma 1" class="cls-1" d="M50.918 582.548A20.571 20.571 0 0 0 48.28 582c-.624.9-3.259 1.547-4.775 1.547H43.5c-1.516 0-4.151-.645-4.775-1.547a20.575 20.575 0 0 0-2.639.545 9.152 9.152 0 0 1 4.814 13.049h5.2a9.151 9.151 0 0 1 4.818-13.046zm-18.447.39a8.531 8.531 0 1 0 8.469 8.53 8.509 8.509 0 0 0-8.469-8.53zm0 13.918a5.388 5.388 0 1 1 5.349-5.388 5.374 5.374 0 0 1-5.349 5.388zm-3.454-8.1a3.973 3.973 0 0 0 .135 4.993 4.781 4.781 0 0 1 .78-4.282 4.708 4.708 0 0 1 3.915-1.846 3.905 3.905 0 0 0-4.83 1.131zm25.513-5.814a8.531 8.531 0 1 0 8.47 8.526 8.51 8.51 0 0 0-8.47-8.53zm0 13.918a5.388 5.388 0 1 1 5.349-5.388 5.374 5.374 0 0 1-5.349 5.384zm-1.376-9.239a4.708 4.708 0 0 1 3.916 1.846 4.781 4.781 0 0 1 .78 4.282 3.974 3.974 0 0 0 .135-4.993 3.906 3.906 0 0 0-4.831-1.139z" transform="translate(-24 -582)"/></symbol><symbol id="arrow" viewbox="0 0 18 29"><path id="Forma_1" data-name="Forma 1" class="cls-1" d="M381.744 654.256v23.458l-5.6-5.6a1.256 1.256 0 1 0-1.776 1.776l7.744 7.74a1.257 1.257 0 0 0 1.776 0l7.744-7.74a1.256 1.256 0 1 0-1.776-1.776l-5.6 5.6v-23.458a1.256 1.256 0 1 0-2.512 0z" transform="translate(-374 -653)"/></symbol><symbol id="fb" viewbox="0 0 60.734 60.733"><path d="M57.378.001H3.352A3.352 3.352 0 0 0 0 3.353v54.026a3.353 3.353 0 0 0 3.352 3.354h29.086V37.214h-7.914v-9.167h7.914v-6.76c0-7.843 4.789-12.116 11.787-12.116 3.355 0 6.232.251 7.071.36v8.198l-4.854.002c-3.805 0-4.539 1.809-4.539 4.462v5.851h9.078l-1.187 9.166h-7.892v23.52h15.475a3.355 3.355 0 0 0 3.355-3.351V3.351a3.352 3.352 0 0 0-3.354-3.35z"/></symbol><symbol id="instagram" viewbox="0 0 97.395 97.395"><path d="M12.501 0h72.393c6.875 0 12.5 5.09 12.5 12.5v72.395c0 7.41-5.625 12.5-12.5 12.5H12.501C5.624 97.395 0 92.305 0 84.895V12.5C0 5.09 5.624 0 12.501 0zm58.447 10.821a4.395 4.395 0 0 0-4.383 4.385v10.495a4.396 4.396 0 0 0 4.383 4.385h11.008a4.398 4.398 0 0 0 4.385-4.385V15.206a4.397 4.397 0 0 0-4.385-4.385H70.948zm15.439 30.367h-8.572a28.486 28.486 0 0 1 1.25 8.355c0 16.2-13.556 29.332-30.275 29.332-16.718 0-30.272-13.132-30.272-29.332 0-2.904.438-5.708 1.25-8.355h-8.945v41.141a3.884 3.884 0 0 0 3.872 3.872h67.822a3.883 3.883 0 0 0 3.872-3.872V41.188h-.002zM48.789 29.533c-10.802 0-19.56 8.485-19.56 18.953s8.758 18.953 19.56 18.953c10.803 0 19.562-8.485 19.562-18.953s-8.758-18.953-19.562-18.953z"/></symbol><symbol id="vk" viewbox="0 0 14.171 14.171"><path d="M13.268 0H.905C.405 0 0 .405 0 .904v12.363c0 .499.405.904.905.904h12.362a.904.904 0 0 0 .904-.904V.904A.902.902 0 0 0 13.268 0zm-1.513 8.635c.259.264.821.707.719 1.158-.094.414-.712.263-1.312.287-.685.029-1.091.044-1.503-.287-.194-.157-.308-.343-.494-.551-.169-.188-.382-.525-.672-.512-.521.026-.358.752-.543 1.247-2.896.456-4.059-1.333-5.085-3.069-.497-.841-1.215-2.647-1.215-2.647l2.048-.007s.657 1.195.831 1.503c.148.262.311.47.479.704.141.194.364.574.608.543.397-.051.469-1.591.223-2.107-.098-.209-.333-.282-.576-.353.082-.518 2.297-.626 2.655-.224.52.584-.36 2.21.352 2.684 1-.524 1.854-2.718 1.854-2.718l2.398.015s-.375 1.186-.768 1.712c-.229.308-.989.994-.959 1.503.024.403.642.795.96 1.119z" fill="#030104"/></symbol></svg>
